<?xml version="1.0" encoding="UTF-8"?>
<svg width="56px" height="52px" viewBox="0 0 56 52" version="1.1" xmlns="http://www.w3.org/2000/svg" xmlns:xlink="http://www.w3.org/1999/xlink">
    <title>icon3</title>
    <g id="GoodFood" stroke="none" stroke-width="1" fill="none" fill-rule="evenodd">
        <g id="首页" transform="translate(-912.000000, -222.000000)" fill="#FF6C01" fill-rule="nonzero">
            <g id="icon3" transform="translate(912.000000, 222.000000)">
                <path d="M11.270872,37.755102 C11.1332964,37.755102 11.0009022,37.7323016 10.8770715,37.6901768 C4.75969619,37.0347115 0,31.5421764 0,24.8840445 C0,18.4886365 4.39148053,13.1686534 10.1593813,12.1783052 L10.0803419,12.4204945 C12.409509,5.08488695 19.4409209,-1.46331926e-13 27.4789684,-1.46331926e-13 C35.4327563,-1.46331926e-13 42.3841554,4.97736867 44.790472,12.153192 C50.6326585,13.0747793 55.1020408,18.4321609 55.1020408,24.8840445 C55.1020408,31.9818917 49.6929068,37.755102 42.9962894,37.755102 L11.270872,37.755102 Z M27.4789684,2.5742115 C20.8806008,2.5742115 15.0961,6.50390674 12.8122398,12.2375106 C13.1422036,12.4697629 13.3580705,12.8590184 13.3580705,13.3000928 C13.3580705,14.0109416 12.7973881,14.5871985 12.1057514,14.5871985 C6.81399852,14.5871985 2.50463822,19.1866119 2.50463822,24.8840445 C2.50463822,30.5814771 6.81399852,35.1808905 12.1057514,35.1808905 L42.9962894,35.1808905 L42.9962894,35.1808905 C48.2880423,35.1808905 52.5974026,30.5814771 52.5974026,24.8840445 C52.5974026,19.1866119 48.2880423,14.5871985 42.9962894,14.5871985 C42.3046527,14.5871985 41.7439703,14.0109416 41.7439703,13.3000928 C41.7439703,12.9102241 41.9126252,12.5608411 42.1790399,12.3248083 C39.9256724,6.55552524 34.1216818,2.5742115 27.4789684,2.5742115 Z" id="形状结合"></path>
                <polygon id="路径-8" points="15.7857143 36.7346939 15.7857143 44.6803267 12.0565401 47.1664428 10.3924395 44.6702919 12.785 43.074 12.7857143 36.7346939"></polygon>
                <polygon id="路径-8备份" transform="translate(42.078942, 41.368275) scale(-1, 1) translate(-42.078942, -41.368275) " points="44.3571429 36.7346939 44.3571429 43.6786427 41.8319113 46.0018557 39.8007417 43.7940627 41.357 42.361 41.3571429 36.7346939"></polygon>
                <path d="M8.16326531,42.377551 C5.64417058,42.377551 3.60204082,44.4196808 3.60204082,46.9387755 C3.60204082,49.4578702 5.64417058,51.5 8.16326531,51.5 C10.68236,51.5 12.7244898,49.4578702 12.7244898,46.9387755 C12.7244898,44.4196808 10.68236,42.377551 8.16326531,42.377551 Z M8.16326531,45.377551 C9.02550578,45.377551 9.7244898,46.076535 9.7244898,46.9387755 C9.7244898,47.801016 9.02550578,48.5 8.16326531,48.5 C7.30102483,48.5 6.60204082,47.801016 6.60204082,46.9387755 C6.60204082,46.076535 7.30102483,45.377551 8.16326531,45.377551 Z" id="椭圆形"></path>
                <path d="M27.5510204,42.377551 C25.0319257,42.377551 22.9897959,44.4196808 22.9897959,46.9387755 C22.9897959,49.4578702 25.0319257,51.5 27.5510204,51.5 C30.0701151,51.5 32.1122449,49.4578702 32.1122449,46.9387755 C32.1122449,44.4196808 30.0701151,42.377551 27.5510204,42.377551 Z M27.5510204,45.377551 C28.4132609,45.377551 29.1122449,46.076535 29.1122449,46.9387755 C29.1122449,47.801016 28.4132609,48.5 27.5510204,48.5 C26.6887799,48.5 25.9897959,47.801016 25.9897959,46.9387755 C25.9897959,46.076535 26.6887799,45.377551 27.5510204,45.377551 Z" id="椭圆形备份-6"></path>
                <path d="M46.4285714,42.377551 C43.6746111,42.377551 41.3571429,44.3639523 41.3571429,46.9387755 C41.3571429,49.5135987 43.6746111,51.5 46.4285714,51.5 C49.1825318,51.5 51.5,49.5135987 51.5,46.9387755 C51.5,44.3639523 49.1825318,42.377551 46.4285714,42.377551 Z M46.4285714,45.377551 C47.6195021,45.377551 48.5,46.1322635 48.5,46.9387755 C48.5,47.7452876 47.6195021,48.5 46.4285714,48.5 C45.2376407,48.5 44.3571429,47.7452876 44.3571429,46.9387755 C44.3571429,46.1322635 45.2376407,45.377551 46.4285714,45.377551 Z" id="椭圆形备份-7"></path>
                <polygon id="路径-9" points="28.5408163 36.7346939 28.5408163 43.877551 25.5408163 43.877551 25.5408163 36.7346939"></polygon>
                <polygon id="路径-9备份" transform="translate(29.923469, 30.178571) rotate(-90.000000) translate(-29.923469, -30.178571) " points="31.3673276 19.1046378 31.4795725 41.2372909 28.4796111 41.2525051 28.3673662 19.119852"></polygon>
            </g>
        </g>
    </g>
</svg>