<?xml version="1.0" encoding="UTF-8"?>
<svg width="52px" height="52px" viewBox="0 0 52 52" version="1.1" xmlns="http://www.w3.org/2000/svg" xmlns:xlink="http://www.w3.org/1999/xlink">
    <title>icon1</title>
    <g id="GoodFood" stroke="none" stroke-width="1" fill="none" fill-rule="evenodd">
        <g id="首页" transform="translate(-474.000000, -225.000000)" fill="#FF6C01" fill-rule="nonzero">
            <g id="icon1" transform="translate(476.000000, 227.000000)">
                <path d="M24,-1.5 C9.91673888,-1.5 -1.5,9.91673888 -1.5,24 C-1.5,38.0832611 9.91673888,49.5 24,49.5 C38.0832611,49.5 49.5,38.0832611 49.5,24 C49.5,9.91673888 38.0832611,-1.5 24,-1.5 Z M24,1.5 C36.4264069,1.5 46.5,11.5735931 46.5,24 C46.5,36.4264069 36.4264069,46.5 24,46.5 C11.5735931,46.5 1.5,36.4264069 1.5,24 C1.5,11.5735931 11.5735931,1.5 24,1.5 Z" id="椭圆形"></path>
                <path d="M24,20.5 C21.5147186,20.5 19.5,22.5147186 19.5,25 C19.5,27.4852814 21.5147186,29.5 24,29.5 C26.4852814,29.5 28.5,27.4852814 28.5,25 C28.5,22.5147186 26.4852814,20.5 24,20.5 Z M24,23.5 C24.8284271,23.5 25.5,24.1715729 25.5,25 C25.5,25.8284271 24.8284271,26.5 24,26.5 C23.1715729,26.5 22.5,25.8284271 22.5,25 C22.5,24.1715729 23.1715729,23.5 24,23.5 Z" id="椭圆形备份" transform="translate(24.000000, 25.000000) scale(1, -1) translate(-24.000000, -25.000000) "></path>
                <path d="M33.5,8.5 C29.6340068,8.5 26.5,11.6340068 26.5,15.5 C26.5,19.3659932 29.6340068,22.5 33.5,22.5 C37.3659932,22.5 40.5,19.3659932 40.5,15.5 C40.5,11.6340068 37.3659932,8.5 33.5,8.5 Z M33.5,11.5 C35.709139,11.5 37.5,13.290861 37.5,15.5 C37.5,17.709139 35.709139,19.5 33.5,19.5 C31.290861,19.5 29.5,17.709139 29.5,15.5 C29.5,13.290861 31.290861,11.5 33.5,11.5 Z" id="椭圆形备份-2" transform="translate(33.500000, 15.500000) scale(1, -1) translate(-33.500000, -15.500000) "></path>
                <path d="M14.5,8.5 C10.6340068,8.5 7.5,11.6340068 7.5,15.5 C7.5,19.3659932 10.6340068,22.5 14.5,22.5 C18.3659932,22.5 21.5,19.3659932 21.5,15.5 C21.5,11.6340068 18.3659932,8.5 14.5,8.5 Z M14.5,11.5 C16.709139,11.5 18.5,13.290861 18.5,15.5 C18.5,17.709139 16.709139,19.5 14.5,19.5 C12.290861,19.5 10.5,17.709139 10.5,15.5 C10.5,13.290861 12.290861,11.5 14.5,11.5 Z" id="椭圆形备份-4" transform="translate(14.500000, 15.500000) scale(1, -1) translate(-14.500000, -15.500000) "></path>
                <path d="M33.5,26.5 C29.6340068,26.5 26.5,29.6340068 26.5,33.5 C26.5,37.3659932 29.6340068,40.5 33.5,40.5 C37.3659932,40.5 40.5,37.3659932 40.5,33.5 C40.5,29.6340068 37.3659932,26.5 33.5,26.5 Z M33.5,29.5 C35.709139,29.5 37.5,31.290861 37.5,33.5 C37.5,35.709139 35.709139,37.5 33.5,37.5 C31.290861,37.5 29.5,35.709139 29.5,33.5 C29.5,31.290861 31.290861,29.5 33.5,29.5 Z" id="椭圆形备份-3" transform="translate(33.500000, 33.500000) scale(1, -1) translate(-33.500000, -33.500000) "></path>
                <path d="M14.5,26.5 C10.6340068,26.5 7.5,29.6340068 7.5,33.5 C7.5,37.3659932 10.6340068,40.5 14.5,40.5 C18.3659932,40.5 21.5,37.3659932 21.5,33.5 C21.5,29.6340068 18.3659932,26.5 14.5,26.5 Z M14.5,29.5 C16.709139,29.5 18.5,31.290861 18.5,33.5 C18.5,35.709139 16.709139,37.5 14.5,37.5 C12.290861,37.5 10.5,35.709139 10.5,33.5 C10.5,31.290861 12.290861,29.5 14.5,29.5 Z" id="椭圆形备份-5" transform="translate(14.500000, 33.500000) scale(1, -1) translate(-14.500000, -33.500000) "></path>
                <polygon id="路径-4备份" points="46.5714286 40 46.5714286 43 41.4285714 43 41.4285714 40"></polygon>
                <polygon id="路径-4" points="47 47 47 50 23 50 23 47"></polygon>
            </g>
        </g>
    </g>
</svg>