<?xml version="1.0" encoding="UTF-8"?>
<svg width="56px" height="53px" viewBox="0 0 56 53" version="1.1" xmlns="http://www.w3.org/2000/svg" xmlns:xlink="http://www.w3.org/1999/xlink">
    <title>icon2</title>
    <g id="GoodFood" stroke="none" stroke-width="1" fill="none" fill-rule="evenodd">
        <g id="首页" transform="translate(-692.000000, -221.000000)" fill="#FF6C01" fill-rule="nonzero">
            <g id="icon2" transform="translate(694.000000, 223.000000)">
                <path d="M50,8.5 L2,8.5 C0.0670033756,8.5 -1.5,10.0670034 -1.5,12 L-1.5,47 C-1.5,48.9329966 0.0670033756,50.5 2,50.5 L50,50.5 C51.9329966,50.5 53.5,48.9329966 53.5,47 L53.5,12 C53.5,10.0670034 51.9329966,8.5 50,8.5 Z M2,11.5 L50,11.5 C50.2761424,11.5 50.5,11.7238576 50.5,12 L50.5,47 C50.5,47.2761424 50.2761424,47.5 50,47.5 L2,47.5 C1.72385763,47.5 1.5,47.2761424 1.5,47 L1.5,12 C1.5,11.7238576 1.72385763,11.5 2,11.5 Z" id="矩形"></path>
                <path d="M22,20.31401 C20.6192881,20.31401 19.5,21.4332981 19.5,22.81401 L19.5,40.2278656 C19.5,40.6834188 19.6244754,41.1303131 19.859979,41.5202704 C20.5737545,42.7021714 22.1105039,43.081662 23.2924048,42.3678866 L37.3893355,33.854446 C37.7220564,33.6535087 38.0033414,33.3777583 38.2108499,33.0490956 C38.9479681,31.8816103 38.5990866,30.337624 37.4316013,29.6005058 L23.3346706,20.7000908 C22.9351965,20.4478738 22.472433,20.31401 22,20.31401 Z M22.5,23.72 L35.145,31.705 L22.5,39.341 L22.5,23.72 Z" id="矩形备份-6"></path>
                <polygon id="路径-5" points="39.9393398 -1.06066017 42.0606602 1.06066017 32.0606602 11.0606602 29.9393398 8.93933983"></polygon>
                <polygon id="路径-5备份" transform="translate(16.000000, 5.000000) scale(1, -1) translate(-16.000000, -5.000000) " points="19.9393398 -1.06066017 22.0606602 1.06066017 12.0606602 11.0606602 9.93933983 8.93933983"></polygon>
                <path d="M52,16 C52.8284271,16 53.5,16.6715729 53.5,17.5 C53.5,18.2796961 52.9051119,18.9204487 52.14446,18.9931334 L52,19 L0,19 C-0.828427125,19 -1.5,18.3284271 -1.5,17.5 C-1.5,16.7203039 -0.905111917,16.0795513 -0.144460011,16.0068666 L0,16 L52,16 Z" id="路径-6"></path>
            </g>
        </g>
    </g>
</svg>