<?xml version="1.0" encoding="UTF-8"?>
<svg width="20px" height="20px" viewBox="0 0 20 20" version="1.1" xmlns="http://www.w3.org/2000/svg" xmlns:xlink="http://www.w3.org/1999/xlink">
    <title>验证码icon</title>
    <defs>
        <rect id="path-1" x="0" y="0" width="20" height="20"></rect>
    </defs>
    <g id="GoodFood" stroke="none" stroke-width="1" fill="none" fill-rule="evenodd">
        <g id="注册" transform="translate(-793.000000, -373.000000)">
            <g id="验证码icon" transform="translate(793.000000, 373.000000)">
                <mask id="mask-2" fill="white">
                    <use xlink:href="#path-1"></use>
                </mask>
                <use id="蒙版" fill="#D8D8D8" opacity="0" xlink:href="#path-1"></use>
                <path d="M10,1 C12.4467475,1 14.5359239,1.42689673 16.8823832,2.34289154 C17.5105784,2.56623386 17.9494713,3.16097634 17.996226,3.85232303 L18,3.96806227 L18,10.799113 C18,14.0210282 14.5907554,16.9769364 10.7420891,18.829618 C10.5082677,18.9453572 10.2701434,19 10,19 C9.72918351,19 9.49170826,18.9446792 9.2621176,18.8321543 C5.47881166,17.009707 2.12187463,14.1264968 2.00310095,10.9719308 L2,10.799113 L2,3.96806227 C2,3.22747178 2.45598421,2.57946766 3.10153515,2.3486672 C5.46462901,1.42689673 7.55325254,1 10,1 Z M10.0000621,2 C7.62836049,2 5.61737326,2.41199475 3.29528817,3.31996651 C3.14390295,3.37345473 3.03273798,3.50967524 3.0057422,3.67467105 L3,3.74464323 L3,10.828526 C3,13.4297621 6.23270815,16.2396647 9.7747741,17.9503245 C9.84489852,17.9857142 9.92228147,18.0026148 10.0000621,17.9996722 C10.0794835,18.0023023 10.1584325,17.9845163 10.2297998,17.9475902 C13.6992306,16.2723202 16.8753371,13.5370771 16.9962216,10.9791732 L17,10.828526 L17,3.74464323 C17,3.55402307 16.8803833,3.38332428 16.6882061,3.31468018 C14.3826267,2.41199475 12.3717638,2 10.0000621,2 Z M13,7 L13,8.26313842 L10.666645,8.26313842 L10.666645,13 L9.33335503,13 L9.33335503,8.26313842 L7,8.26313842 L7,7 L13,7 Z" id="yanzhengma" fill="#94A0B9" mask="url(#mask-2)"></path>
            </g>
        </g>
    </g>
</svg>