<?xml version="1.0" encoding="UTF-8"?>
<svg width="20px" height="20px" viewBox="0 0 20 20" version="1.1" xmlns="http://www.w3.org/2000/svg" xmlns:xlink="http://www.w3.org/1999/xlink">
    <title>用户名icon</title>
    <defs>
        <rect id="path-1" x="0" y="0" width="20" height="20"></rect>
    </defs>
    <g id="GoodFood" stroke="none" stroke-width="1" fill="none" fill-rule="evenodd">
        <g id="登录" transform="translate(-792.000000, -300.000000)">
            <g id="用户名icon" transform="translate(792.000000, 300.000000)">
                <mask id="mask-2" fill="white">
                    <use xlink:href="#path-1"></use>
                </mask>
                <g id="矩形"></g>
                <path d="M10,1.3 C7.40426168,1.3 5.3,3.40426168 5.3,6 C5.3,8.59573832 7.40426168,10.7 10,10.7 C12.5957383,10.7 14.7,8.59573832 14.7,6 C14.7,3.40426168 12.5957383,1.3 10,1.3 Z M10,2.7 C11.8225397,2.7 13.3,4.17746033 13.3,6 C13.3,7.82253967 11.8225397,9.3 10,9.3 C8.17746033,9.3 6.7,7.82253967 6.7,6 C6.7,4.17746033 8.17746033,2.7 10,2.7 Z" id="椭圆形" fill="#94A0B9" fill-rule="nonzero" mask="url(#mask-2)"></path>
                <path d="M10,9.3 C6.30436813,9.3 3.3,12.2145269 3.3,15.8205787 C3.3,17.887374 6.19674265,18.7943491 10.0185063,18.6932758 C13.7258,18.5952299 16.7,17.6115641 16.7,15.8205787 C16.7,12.2145269 13.6956319,9.3 10,9.3 Z M10,10.7 C12.9317851,10.7 15.3,12.9973969 15.3,15.8205787 C15.3,16.4209433 12.8938288,17.2167433 9.98149373,17.2937651 C6.93642528,17.3742974 4.7,16.6740688 4.7,15.8205787 C4.7,12.9973969 7.06821487,10.7 10,10.7 Z" id="椭圆形备份" fill="#94A0B9" fill-rule="nonzero" mask="url(#mask-2)"></path>
            </g>
        </g>
    </g>
</svg>