<?xml version="1.0" encoding="UTF-8"?>
<svg width="20px" height="20px" viewBox="0 0 20 20" version="1.1" xmlns="http://www.w3.org/2000/svg" xmlns:xlink="http://www.w3.org/1999/xlink">
    <title>密码icon</title>
    <defs>
        <rect id="path-1" x="0" y="0" width="20" height="20"></rect>
    </defs>
    <g id="GoodFood" stroke="none" stroke-width="1" fill="none" fill-rule="evenodd">
        <g id="登录" transform="translate(-790.000000, -373.000000)">
            <g id="密码icon" transform="translate(790.000000, 373.000000)">
                <mask id="mask-2" fill="white">
                    <use xlink:href="#path-1"></use>
                </mask>
                <use id="矩形" stroke="#979797" fill="#D8D8D8" opacity="0" xlink:href="#path-1"></use>
                <path d="M4.90601471,10.3339038 C4.55644631,10.3340601 4.27300693,10.6309326 4.27272727,10.997339 L4.27272727,17.0026805 C4.27300693,17.3690088 4.55637173,17.6658813 4.90594013,17.6661157 L15.0941904,17.6661157 C15.4437588,17.6658813 15.7271236,17.3690088 15.7274219,17.0026805 L15.7274219,10.9971827 C15.7271236,10.6307763 15.4436842,10.3339038 15.0940412,10.3337475 L4.90580963,10.3337475 L4.90601471,10.3339038 Z M15.0941904,19 L4.90594013,19 C3.85527735,19 3,18.1037168 3,17.0026805 L3,10.9971827 C3,9.89612688 3.85527735,9 4.90580963,9 L15.0940412,9 C16.1447226,9 17,9.89628318 17,10.9971827 L17,17.0026024 C17,18.1034824 16.1447226,18.9997655 15.0940412,18.9997655 L15.0941904,19 Z" id="Fill-1" fill="#94A0B9" mask="url(#mask-2)"></path>
                <path d="M9.66666341,16.1909214 C9.29998193,16.1909214 9,15.9036846 9,15.5526735 L9,13.6381731 C9,13.2871807 9.29998193,13 9.66666341,13 C10.0333254,13 10.3334049,13.2871807 10.3334049,13.6381731 L10.3334049,15.5526735 C10.3334049,15.9036846 10.0333254,16.1909214 9.66666341,16.1909214 L9.66666341,16.1909214 Z" id="路径" fill="#94A0B9" mask="url(#mask-2)"></path>
                <path d="M14,9.01994101 L12.6666732,9.01994101 L12.6666732,5.82909443 C12.6666732,4.42121732 11.4706908,3.27634611 9.99996094,3.27634611 C8.52930923,3.27634611 7.33332682,4.42121732 7.33332682,5.82909443 L7.33332682,9.01994101 L6,9.01994101 L6,5.82909443 C6,3.71732551 7.79399313,2 9.99996094,2 C12.2060069,2 14,3.71732551 14,5.82909443 L14,9.01994101 Z" id="Fill-2" fill="#94A0B9" mask="url(#mask-2)"></path>
            </g>
        </g>
    </g>
</svg>