<?xml version="1.0" encoding="UTF-8"?>
<svg width="160px" height="49px" viewBox="0 0 160 49" version="1.1" xmlns="http://www.w3.org/2000/svg" xmlns:xlink="http://www.w3.org/1999/xlink">
    <title>logo</title>
    <defs>
        <polygon id="path-1" points="0.140885538 0.0676828309 43.6390887 0.0676828309 43.6390887 48.857113 0.140885538 48.857113"></polygon>
        <polygon id="path-3" points="0 0.0815544643 15.6636974 0.0815544643 15.6636974 8.59692115 0 8.59692115"></polygon>
    </defs>
    <g id="GoodFood" stroke="none" stroke-width="1" fill="none" fill-rule="evenodd">
        <g id="首页" transform="translate(-120.000000, -11.000000)">
            <g id="logo" transform="translate(120.000000, 11.000000)">
                <g id="编组">
                    <g transform="translate(5.599456, 0.000000)">
                        <mask id="mask-2" fill="white">
                            <use xlink:href="#path-1"></use>
                        </mask>
                        <g id="Clip-2"></g>
                        <path d="M3.38915094,14.5275743 C3.4180351,14.4896241 4.27658691,15.5274275 4.27658691,15.5274275 C4.27658691,15.5274275 3.86604059,13.1160959 3.90274755,13.0472178 C4.18391687,12.5196503 4.57385314,11.8756923 4.57385314,11.8756923 L5.21547281,13.4201457 C5.21547281,13.4201457 5.66814188,10.9418784 5.80353642,10.7543685 C9.75359684,5.28012739 15.654843,1.37708414 15.654843,1.37708414 C6.34195537,10.8915271 8.17534785,13.3723345 8.17534785,13.3723345 C10.0702696,11.7527277 10.2819364,11.6095927 10.2819364,11.6095927 C11.7043313,5.68861494 15.654843,1.37708414 15.654843,1.37708414 C13.6872595,8.0718574 17.7146452,8.30732792 17.7146452,8.30732792 C17.7146452,8.30732792 20.8681344,7.29582071 25.0882317,7.5383135 C29.0462654,7.76571586 43.6390887,0.0676529489 43.6390887,0.0676529489 L25.6847199,10.5798574 L27.6831433,9.68653368 L25.999437,11.5360828 C25.999437,11.5360828 24.8321856,21.9986831 16.3820621,25.1273332 C16.3820621,25.1273332 7.10136828,28.3533987 5.39088396,35.9299911 C5.34590288,40.7906045 7.41683756,37.5752965 7.41683756,37.5752965 C9.97444038,33.2618233 16.2520833,33.8785887 16.2520833,33.8785887 C13.3781086,35.6062191 12.2856251,37.7917919 11.4102242,39.9211864 C9.27324711,45.1194668 10.8438237,48.857113 10.8438237,48.857113 C1.99413588,42.318324 3.88213749,34.180995 3.6277462,33.5836529 C1.06893988,31.5793148 0.140885538,25.1273332 0.140885538,25.1273332 L1.53304226,25.5882637 L0.140885538,22.8229793 C0.140885538,22.8229793 1.16567175,17.4492912 3.38915094,14.5275743" id="Fill-1" fill="#FF6D00" mask="url(#mask-2)"></path>
                    </g>
                    <g transform="translate(0.000000, 20.357143)">
                        <mask id="mask-4" fill="white">
                            <use xlink:href="#path-3"></use>
                        </mask>
                        <g id="Clip-4"></g>
                        <path d="M15.2308225,7.73185804 C12.9733134,8.43477768 10.1597812,8.75550089 7.3858545,8.52084018 C2.07439593,8.07140268 -1.07995945,5.75560804 0.340266281,3.34828661 C1.23401835,1.83361696 3.72606585,0.643920536 6.77429107,0.0815544643 C4.51941198,0.575920536 2.26468761,1.49255446 1.55271824,2.69955446 C0.380335831,4.68658125 3.09516383,7.03212589 7.1686435,7.37683125 C9.53042629,7.57658125 11.9525455,7.21305446 13.7994577,6.48493839 L15.6636974,7.53104554 L15.2308225,7.73185804 Z" id="Fill-3" fill="#E05A00" mask="url(#mask-4)"></path>
                    </g>
                    <polygon id="Fill-5" fill="#0062FF" points="24.433991 25.9553571 25.0347428 27.8993017 26.9791984 27.8993017 25.4060817 29.1006983 26.0069706 31.0446429 24.433991 29.8432462 22.8610114 31.0446429 23.4619003 29.1006983 21.8887836 27.8993017 23.8332392 27.8993017"></polygon>
                </g>
                <g id="编组" transform="translate(38.000000, 14.000000)">
                    <polygon id="Fill-1" fill="#000000" points="12.5166366 10.2325581 12.5166366 12.2496778 5.43291284 12.2496778 5.99306394 10.736838 1.97342611 10.736838 0.293107838 15.3092574 4.34583078 15.3092574 4.87276174 13.8299452 12.5166366 13.8299452 12.5166366 16.1496825 2.59947734 16.1496825 2.59947734 17.7299499 12.5166366 17.7299499 12.5166366 20.4869119 0.0625924249 20.4869119 0.0625924249 22 25.3662167 22 26.2888185 20.4869119 16.1408737 20.4869119 16.1408737 17.7299499 24.0483491 17.7299499 24.971086 16.1496825 16.1408737 16.1496825 16.1408737 13.8299452 25.0698011 13.8299452 25.9922679 12.2834537 16.1408737 12.2496778 16.1408737 10.2325581"></polygon>
                    <polygon id="Fill-2" fill="#000000" points="6.84571426 6.33680665 6.84571426 7.42578985 20.5990547 7.42578985 20.5990547 5.42380852 20.5990547 3.78576269 20.5990547 0 24.2318596 0 24.2318596 9.20930233 3.14803078 9.20930233 3.14803078 0 20.5990547 0 19.7556324 1.7109136 6.84571426 1.7109136 6.84571426 2.95894212"></polygon>
                    <polygon id="Fill-3" fill="#0062FF" points="11.6851048 2.50484496 12.1099861 3.87279868 13.4849438 3.87279868 12.3725205 4.71828659 12.7974018 6.08624031 11.6851048 5.24075239 10.5728078 6.08624031 10.9976891 4.71828659 9.88526574 3.87279868 11.2602235 3.87279868"></polygon>
                    <polygon id="Fill-4" fill="#0062FF" points="15.7990226 2.50484496 16.2239039 3.87279868 17.5988616 3.87279868 16.4864383 4.71828659 16.9114459 6.08624031 15.7990226 5.24075239 14.6867256 6.08624031 15.1116069 4.71828659 13.9991836 3.87279868 15.3741413 3.87279868"></polygon>
                    <path d="M36.0899732,0 L31.3761752,5.4232933 L36.2191293,5.4232933 L38.0271813,3.30864983 L46.6476845,3.30864983 L44.355165,6.13959634 L33.1519383,6.13959634 L33.1519383,17.8728064 L54.1703614,17.8728064 L54.1703614,6.13959634 L49.2951184,6.13959634 L51.5550842,3.30864983 L51.5550842,1.7055974 L39.4156086,1.7055974 L40.9007706,0 L36.0899732,0 Z M45.7113033,11.324038 L50.4252336,11.324038 L50.4252336,7.74264877 L45.7113033,7.74264877 L45.7113033,11.324038 Z M36.8970661,11.324038 L41.5787074,11.324038 L41.5787074,7.74264877 L36.8970661,7.74264877 L36.8970661,11.324038 Z M45.7113033,16.2697539 L50.4252336,16.2697539 L50.4252336,12.9270904 L45.7113033,12.9270904 L45.7113033,16.2697539 Z M36.8970661,16.2697539 L41.5787074,16.2697539 L41.5787074,12.9270904 L36.8970661,12.9270904 L36.8970661,16.2697539 Z M29.3742568,19.3735658 L29.3742568,20.9767442 L56.8180599,20.9767442 L57.6574418,19.3735658 L29.3742568,19.3735658 Z" id="Fill-5" fill="#000000"></path>
                    <path d="M82.3302458,6.66194372 L78.4707407,6.66194372 L75.9407655,1.70813569 L79.8005364,1.70813569 L82.3302458,6.66194372 Z M81.0654576,12.3674223 L77.2056866,12.3674223 L74.7081487,7.4478098 L78.5679196,7.4478098 L81.0654576,12.3674223 Z M86.9360743,20.9767442 L83.0763033,20.9767442 L83.0763033,15.1346097 L73.8647793,15.1346097 L73.8647793,13.5290606 L83.0763033,13.5290606 L83.0763033,0 L86.9360743,0 L86.9360743,13.5290606 L90.5687843,13.5290606 L89.7254149,15.1346097 L86.9360743,15.1346097 L86.9360743,20.9767442 Z M66.2751194,5.02207289 L66.2751194,2.1181034 L62.8370332,2.32315035 L62.8370332,0.683279514 L73.8972165,0.0343217041 L73.8972165,1.53741045 L69.9078294,1.8447916 L69.9078294,5.02207289 L73.9945284,5.02207289 L73.151159,6.6277482 L69.9078294,6.6277482 L69.9078294,8.30181456 L72.5674208,8.30181456 L73.6702885,18.5511335 L70.5240049,18.5511335 L69.9078294,12.0257195 L69.9078294,20.9767442 L66.2751194,20.9767442 L66.2751194,14.1097535 L65.3993127,20.9767442 L62.2855993,20.9767442 L64.0370797,6.6277482 L62.8370332,6.6277482 L62.8370332,5.02207289 L66.2751194,5.02207289 Z" id="Fill-6" fill="#000000"></path>
                    <path d="M111.297993,0 L111.297993,2.1216755 L105.93004,2.1216755 L105.93004,3.72983652 L111.297993,3.72983652 L111.297993,6.87816182 L105.93004,6.87816182 L105.93004,8.3496974 L117.506925,8.3496974 L117.506925,9.51322541 L113.367769,13.1403085 L110.651188,10.6423759 L105.93004,10.6423759 L110.942383,15.2621104 L104.377708,20.9767442 L108.808191,20.9767442 L113.206201,17.3152836 L117.215995,20.9767442 L121.937408,20.9767442 L115.696003,15.2758867 L121.25813,10.6675271 L121.25813,6.87816182 L115.30792,6.87816182 L115.30792,3.72983652 L121.25813,3.72983652 L121.25813,2.1216755 L115.30792,2.1216755 L115.30792,0 L111.297993,0 Z M99.0097553,0 L99.0097553,3.66146061 L96.0023764,3.66146061 L96.0023764,5.20124572 L99.0097553,5.20124572 L99.0097553,11.8904575 L96.0023764,12.5419877 L96.0023764,14.222569 L99.0097553,13.570786 L99.0097553,19.5050822 L95.7111815,19.5050822 L96.3904595,20.9767442 L102.696412,20.9767442 L102.696412,12.8324273 L105.186214,12.2849144 L105.186214,10.5397488 L102.696412,11.0871353 L102.696412,5.20124572 L104.668903,5.20124572 L105.347916,3.66146061 L102.696412,3.66146061 L102.696412,0 L99.0097553,0 Z" id="Fill-7" fill="#000000"></path>
                </g>
            </g>
        </g>
    </g>
</svg>