<?xml version="1.0" encoding="UTF-8"?>
<svg width="284px" height="87px" viewBox="0 0 284 87" version="1.1" xmlns="http://www.w3.org/2000/svg" xmlns:xlink="http://www.w3.org/1999/xlink">
    <title>logo</title>
    <defs>
        <polygon id="path-1" points="0.253593969 0.120171557 78.5503596 0.120171557 78.5503596 86.7463026 0.253593969 86.7463026"></polygon>
        <polygon id="path-3" points="0 0.144800784 28.1946553 0.144800784 28.1946553 15.2639212 0 15.2639212"></polygon>
    </defs>
    <g id="GoodFood" stroke="none" stroke-width="1" fill="none" fill-rule="evenodd">
        <g id="首页" transform="translate(-818.000000, -208.000000)">
            <g id="logo" transform="translate(818.000000, 208.000000)">
                <g id="编组">
                    <g transform="translate(10.079021, 0.000000)">
                        <mask id="mask-2" fill="white">
                            <use xlink:href="#path-1"></use>
                        </mask>
                        <g id="Clip-2"></g>
                        <path d="M6.10047169,25.7938564 C6.15246319,25.7264755 7.69785644,27.569106 7.69785644,27.569106 C7.69785644,27.569106 6.95887306,23.2877622 7.02494559,23.1654684 C7.53105037,22.2287669 8.23293566,21.0854128 8.23293566,21.0854128 L9.38785106,23.8276057 C9.38785106,23.8276057 10.2026554,19.4274167 10.4463656,19.0944911 C17.5564743,9.37492006 28.1787174,2.44502695 28.1787174,2.44502695 C11.4155197,19.3380176 14.7156261,23.7427163 14.7156261,23.7427163 C18.1264853,20.8670879 18.5074855,20.6129502 18.5074855,20.6129502 C21.0677963,10.1001939 28.1787174,2.44502695 28.1787174,2.44502695 C24.6370671,14.3316652 31.8863614,14.7497455 31.8863614,14.7497455 C31.8863614,14.7497455 37.562642,12.9538041 45.1588171,13.3843525 C52.2832777,13.7881077 78.5503596,0.120118501 78.5503596,0.120118501 L46.2324958,18.7846448 L49.8296579,17.1985394 L46.7989866,20.4824328 C46.7989866,20.4824328 44.6979341,39.0588863 29.4877118,44.6138364 C29.4877118,44.6138364 12.7824629,50.3417487 9.70359112,63.7940658 C9.62262519,72.4241344 13.3503076,66.7153223 13.3503076,66.7153223 C17.9539927,59.0567067 29.25375,60.15178 29.25375,60.15178 C24.0805955,63.2192054 22.1141252,67.0997121 20.5384036,70.8804738 C16.6918448,80.1100738 19.5188827,86.7463026 19.5188827,86.7463026 C3.58944459,75.1366161 6.98784749,60.6887054 6.52994316,59.6281185 C1.92409178,56.0693957 0.253593969,44.6138364 0.253593969,44.6138364 L2.75947607,45.4322233 L0.253593969,40.5224326 C0.253593969,40.5224326 2.09820915,30.9813946 6.10047169,25.7938564" id="Fill-1" fill="#FF6D00" mask="url(#mask-2)"></path>
                    </g>
                    <g transform="translate(0.000000, 36.144315)">
                        <mask id="mask-4" fill="white">
                            <use xlink:href="#path-3"></use>
                        </mask>
                        <g id="Clip-4"></g>
                        <path d="M27.4154805,13.7279928 C23.351964,14.9760338 18.2876062,15.5454812 13.2945381,15.1288387 C3.73391267,14.3308578 -1.943927,10.2191408 0.612479306,5.94491704 C2.22123304,3.25560563 6.70691853,1.14328748 12.1937239,0.144800784 C8.13494157,1.02255279 4.0764377,2.65004568 2.79489284,4.7930865 C0.684604495,8.32107283 5.5712949,12.4856113 12.9035583,13.0976392 C17.1547673,13.4522973 21.5145818,12.8068518 24.8390239,11.5140743 L28.1946553,13.3714482 L27.4154805,13.7279928 Z" id="Fill-3" fill="#E05A00" mask="url(#mask-4)"></path>
                    </g>
                    <polygon id="Fill-5" fill="#0062FF" points="43.9811838 46.0840015 45.062537 49.5354948 48.5625571 49.5354948 45.730947 51.6685868 46.812547 55.1200802 43.9811838 52.9869882 41.1498205 55.1200802 42.2314206 51.6685868 39.3998105 49.5354948 42.8998306 49.5354948"></polygon>
                </g>
                <g id="编组" transform="translate(68.000000, 24.000000)">
                    <polygon id="Fill-1" fill="#FFFFFF" points="22.1606026 18.1395349 22.1606026 21.7153379 9.61892765 21.7153379 10.6106706 19.0334856 3.49393475 19.0334856 0.518945025 27.1391381 7.69425777 27.1391381 8.62718471 24.5167211 22.1606026 24.5167211 22.1606026 28.6289826 4.60235332 28.6289826 4.60235332 31.4303658 22.1606026 31.4303658 22.1606026 36.3177075 0.110819375 36.3177075 0.110819375 39 44.9106787 39 46.5441376 36.3177075 28.5772846 36.3177075 28.5772846 31.4303658 42.577405 31.4303658 44.211103 28.6289826 28.5772846 28.6289826 28.5772846 24.5167211 44.3858774 24.5167211 46.0190972 21.7752134 28.5772846 21.7153379 28.5772846 18.1395349"></polygon>
                    <polygon id="Fill-2" fill="#FFFFFF" points="12.120281 11.23343 12.120281 13.1639002 36.4704575 13.1639002 36.4704575 9.61493329 36.4704575 6.71112477 36.4704575 0 42.9023087 0 42.9023087 16.3255814 5.5735627 16.3255814 5.5735627 0 36.4704575 0 34.9771853 3.03298319 12.120281 3.03298319 12.120281 5.24539739"></polygon>
                    <polygon id="Fill-3" fill="#0062FF" points="20.6883822 4.44040698 21.4406311 6.86541584 23.8749825 6.86541584 21.9054461 8.36423532 22.6576949 10.7892442 20.6883822 9.2904247 18.7190695 10.7892442 19.4713184 8.36423532 17.501782 6.86541584 19.9361334 6.86541584"></polygon>
                    <polygon id="Fill-4" fill="#0062FF" points="27.97204 4.44040698 28.7242888 6.86541584 31.1586403 6.86541584 29.1891039 8.36423532 29.9415764 10.7892442 27.97204 9.2904247 26.0027273 10.7892442 26.7549761 8.36423532 24.7854397 6.86541584 27.2197912 6.86541584"></polygon>
                    <path d="M63.8970018,0 L55.5512611,9.61401994 L64.1256715,9.61401994 L67.3268128,5.86533379 L82.589343,5.86533379 L78.530456,10.8838299 L58.695235,10.8838299 L58.695235,31.6836113 L95.9081808,31.6836113 L95.9081808,10.8838299 L87.276603,10.8838299 L91.2778539,5.86533379 L91.2778539,3.02355902 L69.785012,3.02355902 L72.4144791,0 L63.8970018,0 Z M80.9314877,20.074431 L89.2774627,20.074431 L89.2774627,13.7256046 L80.9314877,13.7256046 L80.9314877,20.074431 Z M65.3259531,20.074431 L73.6147606,20.074431 L73.6147606,13.7256046 L65.3259531,13.7256046 L65.3259531,20.074431 Z M80.9314877,28.8418365 L89.2774627,28.8418365 L89.2774627,22.9162057 L80.9314877,22.9162057 L80.9314877,28.8418365 Z M65.3259531,28.8418365 L73.6147606,28.8418365 L73.6147606,22.9162057 L65.3259531,22.9162057 L65.3259531,28.8418365 Z M52.0068809,34.3440484 L52.0068809,37.1860465 L100.595909,37.1860465 L102.082028,34.3440484 L52.0068809,34.3440484 Z" id="Fill-5" fill="#FFFFFF"></path>
                    <path d="M145.765025,11.8098093 L138.931803,11.8098093 L134.452503,3.02805873 L141.286196,3.02805873 L145.765025,11.8098093 Z M143.525728,21.9240668 L136.692035,21.9240668 L132.270165,13.2029356 L139.103858,13.2029356 L143.525728,21.9240668 Z M153.919607,37.1860465 L147.085914,37.1860465 L147.085914,26.8295354 L130.776986,26.8295354 L130.776986,23.9833346 L147.085914,23.9833346 L147.085914,0 L153.919607,0 L153.919607,23.9833346 L160.35129,23.9833346 L158.858112,26.8295354 L153.919607,26.8295354 L153.919607,37.1860465 Z M117.339556,8.90276557 L117.339556,3.75481967 L111.252452,4.11831198 L111.252452,1.21126823 L130.834416,0.060843021 L130.834416,2.72540944 L123.771239,3.27031238 L123.771239,8.90276557 L131.006706,8.90276557 L129.513527,11.74919 L123.771239,11.74919 L123.771239,14.7168531 L128.480024,14.7168531 L130.432642,32.8861002 L124.862173,32.8861002 L123.771239,21.3183209 L123.771239,37.1860465 L117.339556,37.1860465 L117.339556,25.0127449 L115.788947,37.1860465 L110.276143,37.1860465 L113.377125,11.74919 L111.252452,11.74919 L111.252452,8.90276557 L117.339556,8.90276557 Z" id="Fill-6" fill="#FFFFFF"></path>
                    <path d="M197.052184,0 L197.052184,3.76115203 L187.548268,3.76115203 L187.548268,6.61198293 L197.052184,6.61198293 L197.052184,12.193105 L187.548268,12.193105 L187.548268,14.8017363 L208.045047,14.8017363 L208.045047,16.8643541 L200.716707,23.2941832 L195.907021,18.86603 L187.548268,18.86603 L196.422579,27.0555593 L184.799876,37.1860465 L192.64401,37.1860465 L200.43065,30.6952754 L207.529958,37.1860465 L215.889181,37.1860465 L204.838825,27.0799809 L214.686525,18.9106162 L214.686525,12.193105 L204.151727,12.193105 L204.151727,6.61198293 L214.686525,6.61198293 L214.686525,3.76115203 L204.151727,3.76115203 L204.151727,0 L197.052184,0 Z M175.29596,0 L175.29596,6.49077108 L169.97142,6.49077108 L169.97142,9.22039014 L175.29596,9.22039014 L175.29596,21.0785382 L169.97142,22.2335236 L169.97142,25.212736 L175.29596,24.0573025 L175.29596,34.5771912 L169.455862,34.5771912 L170.658518,37.1860465 L181.823156,37.1860465 L181.823156,22.7483938 L186.23133,21.7778029 L186.23133,18.6841002 L181.823156,19.6544671 L181.823156,9.22039014 L185.315434,9.22039014 L186.517621,6.49077108 L181.823156,6.49077108 L181.823156,0 L175.29596,0 Z" id="Fill-7" fill="#FFFFFF"></path>
                </g>
            </g>
        </g>
    </g>
</svg>